<svg width="98" height="95" viewBox="0 0 98 95" fill="none" xmlns="http://www.w3.org/2000/svg">
<rect y="0.216309" width="97.1944" height="94.5676" rx="47.2838" fill="#D30000"/>
<path d="M19.9574 42.7085C19.3812 39.9164 21.5136 37.2991 24.3645 37.2991H72.6355C75.4864 37.2991 77.6188 39.9164 77.0426 42.7085L71.7188 68.5085C71.2874 70.5992 69.4464 72.0991 67.3117 72.0991H29.6883C27.5536 72.0991 25.7126 70.5992 25.2812 68.5085L19.9574 42.7085Z" stroke="white" stroke-width="3"/>
<path d="M33.1992 37L45.1992 25" stroke="white" stroke-width="3" stroke-linecap="round" stroke-linejoin="round"/>
<path d="M63.8008 36.4L52.4008 25" stroke="white" stroke-width="3" stroke-linecap="round" stroke-linejoin="round"/>
<path d="M20.9014 45.7H76.1014" stroke="white" stroke-width="3" stroke-linecap="round" stroke-linejoin="round"/>
<path d="M48.1992 46.0024V71.5024" stroke="white" stroke-width="3" stroke-linecap="round" stroke-linejoin="round"/>
<path d="M32.9004 45.7L37.4004 71.4999" stroke="white" stroke-width="3" stroke-linecap="round" stroke-linejoin="round"/>
<path d="M26.5996 45.7L31.0996 71.4999" stroke="white" stroke-width="3" stroke-linecap="round" stroke-linejoin="round"/>
<path d="M39.2012 45.7L43.7012 71.4999" stroke="white" stroke-width="3" stroke-linecap="round" stroke-linejoin="round"/>
<path d="M63.7996 46.0024L59.5996 71.5024" stroke="white" stroke-width="3" stroke-linecap="round" stroke-linejoin="round"/>
<path d="M57.7996 46.0024L53.5996 71.5024" stroke="white" stroke-width="3" stroke-linecap="round" stroke-linejoin="round"/>
<path d="M69.7986 46.0024L65.5986 71.5024" stroke="white" stroke-width="3" stroke-linecap="round" stroke-linejoin="round"/>
</svg>
