<svg width="67" height="65" viewBox="0 0 67 65" fill="none" xmlns="http://www.w3.org/2000/svg">
<rect width="66.8056" height="65" rx="32.186" fill="white"/>
<path d="M40.7099 53.8188C39.4723 53.7954 38.4551 53.6487 37.4475 53.4083C35.5146 52.9466 33.7224 52.136 31.9693 51.2255C30.6622 50.5468 29.4063 49.7822 28.1852 48.9577C26.8382 48.0481 25.5607 47.0492 24.3439 45.9747C23.1713 44.9393 22.07 43.8319 21.0302 42.6619C20.0434 41.551 19.1113 40.3976 18.2486 39.1886C17.4007 37.9996 16.5952 36.7819 15.9217 35.4853C15.4392 34.5557 14.9749 33.6149 14.5496 32.6576C14.0453 31.5224 13.6331 30.3499 13.3432 29.14C13.1167 28.1931 12.9856 27.2315 13.0013 26.2543C13.0143 25.4028 13.1401 24.5723 13.5315 23.8024C13.831 23.214 14.2675 22.7349 14.7388 22.2801C15.3941 21.6466 16.0268 20.9896 16.682 20.356C17.1064 19.9463 17.5178 19.5098 17.9986 19.1765C18.8804 18.5672 19.8204 18.5664 20.7638 19.0871C21.347 19.4091 21.7662 19.9142 22.2279 20.3716C23.5315 21.6639 24.8325 22.9597 26.1213 24.2659C26.7636 24.9177 27.1715 25.6806 27.0656 26.6361C26.9979 27.2454 26.7289 27.7766 26.3123 28.207C25.3341 29.2173 24.3282 30.1989 23.3354 31.1944C23.0715 31.4582 22.8172 31.7316 22.5534 31.9963C22.3685 32.1812 22.3338 32.3877 22.4267 32.6264C22.7339 33.4092 23.134 34.1435 23.5862 34.85C24.4142 36.1457 25.3966 37.3209 26.4277 38.4552C27.4188 39.5462 28.4768 40.5703 29.6216 41.4998C30.5589 42.261 31.5284 42.9796 32.5794 43.5776C33.1036 43.8753 33.653 44.1287 34.1954 44.3925C34.4063 44.495 34.6033 44.4533 34.7743 44.2832C35.9581 43.1028 37.1428 41.9234 38.3275 40.7439C38.7432 40.3299 39.2032 39.9888 39.7786 39.8256C40.5927 39.5948 41.3504 39.7441 42.0005 40.2535C42.5299 40.6675 43.0046 41.1561 43.4837 41.63C44.7222 42.8564 45.9572 44.087 47.181 45.329C47.8128 45.9704 48.1851 46.7281 48.0775 47.6602C48.002 48.3155 47.7 48.8683 47.2487 49.3309C46.6134 49.9827 45.952 50.6085 45.3098 51.2542C44.9062 51.6604 44.5339 52.0978 44.1199 52.4918C43.4438 53.1349 42.634 53.5385 41.7132 53.6982C41.3166 53.7676 40.9121 53.7954 40.7099 53.8188ZM32.9786 14.0056C32.4926 14.042 32.0552 14.2 31.7323 14.5818C31.307 15.0852 31.1447 15.6754 31.1986 16.3289C31.2558 17.0198 31.8339 17.7514 32.5021 17.9102C32.8918 18.0031 33.2997 18.0213 33.699 18.0743C34.5834 18.1914 35.4756 18.2661 36.3496 18.4353C38.0784 18.7703 39.7066 19.39 41.2228 20.2961C42.4639 21.0382 43.5714 21.9416 44.5538 23.0022C45.4799 24.0029 46.2593 25.1086 46.9475 26.2838C47.6878 27.5492 48.206 28.9022 48.5401 30.323C48.7987 31.4226 48.9281 32.5439 48.9576 33.6739C48.9706 34.153 49.0539 34.6052 49.3377 35.0079C49.9895 35.934 51.4754 35.9609 52.2677 35.3551C52.8423 34.9159 53.0376 34.2954 52.9942 33.6097C52.9378 32.7141 52.8492 31.8192 52.7373 30.9296C52.5759 29.6443 52.2226 28.4032 51.7774 27.1881C51.3278 25.9618 50.7515 24.7953 50.0694 23.6827C49.4436 22.6629 48.738 21.6995 47.9612 20.7899C47.5542 20.3135 47.1593 19.8144 46.6889 19.4065C45.9512 18.7677 45.1657 18.1819 44.3803 17.6013C43.2355 16.7559 41.9866 16.0894 40.6787 15.5339C39.336 14.9646 37.9439 14.5584 36.5084 14.3067C35.4912 14.1288 34.4662 14.022 33.5002 14.0029C33.2807 14.0038 33.1288 13.9943 32.9786 14.0056ZM45.4781 33.5542C45.4712 32.7357 45.3436 31.9312 45.164 31.1371C44.9079 30.0019 44.4818 28.9291 43.902 27.9189C43.2008 26.6978 42.3511 25.5973 41.2897 24.6634C40.0147 23.5421 38.5801 22.6985 36.971 22.1569C35.762 21.7498 34.5157 21.552 33.2425 21.5077C32.7651 21.4912 32.2938 21.5346 31.8773 21.7802C31.2315 22.1612 30.9417 22.7479 30.9234 23.4961C30.8948 24.7042 31.7453 25.5 32.8363 25.5348C33.5792 25.5582 34.3135 25.6268 35.039 25.8021C35.8722 26.0026 36.6577 26.3176 37.3841 26.7663C38.3917 27.3886 39.2379 28.1871 39.9236 29.1539C40.7247 30.2839 41.1838 31.5476 41.373 32.9119C41.4459 33.437 41.4624 33.9699 41.5457 34.4924C41.6212 34.9637 41.8581 35.3655 42.24 35.6649C42.7165 36.039 43.2659 36.1353 43.8465 36.0242C44.6476 35.8715 45.2186 35.4297 45.4122 34.6122C45.4929 34.2711 45.4886 33.91 45.5224 33.5585C45.5077 33.5568 45.4929 33.555 45.4781 33.5542Z" fill="#FF6100"/>
</svg>
