<svg style="display: none;" aria-hidden="true" xmlns="http://www.w3.org/2000/svg" xmlns:xlink="http://www.w3.org/1999/xlink"><symbol viewBox="0 0 98 95" fill="none" id="svg-buy"><rect y=".216" width="97.194" height="94.568" rx="47.284" fill="#D30000"/><path d="M19.9574 42.7085C19.3812 39.9164 21.5136 37.2991 24.3645 37.2991H72.6355C75.4864 37.2991 77.6188 39.9164 77.0426 42.7085L71.7188 68.5085C71.2874 70.5992 69.4464 72.0991 67.3117 72.0991H29.6883C27.5536 72.0991 25.7126 70.5992 25.2812 68.5085L19.9574 42.7085Z" stroke="#fff" stroke-width="3"/><path d="M33.1992 37L45.1992 25M63.8008 36.4L52.4008 25M20.9014 45.7H76.1014M48.1992 46.0024V71.5024M32.9004 45.7L37.4004 71.4999M26.5996 45.7L31.0996 71.4999M39.2012 45.7L43.7012 71.4999M63.7996 46.0024L59.5996 71.5024M57.7996 46.0024L53.5996 71.5024M69.7986 46.0024L65.5986 71.5024" stroke="#fff" stroke-width="3" stroke-linecap="round" stroke-linejoin="round"/></symbol><symbol viewBox="0 0 62 62" fill="none" id="svg-pdf-icon"><path d="M13.2228 38.8831H7.88646V34.8882H13.2228C13.95 34.8882 14.5397 34.7654 14.9917 34.5197 15.4438 34.274 15.773 33.935 15.9794 33.5026 16.1956 33.0603 16.3037 32.564 16.3037 32.0137 16.3037 31.424 16.1956 30.8786 15.9794 30.3774 15.773 29.8762 15.4438 29.4733 14.9917 29.1686 14.5397 28.8541 13.95 28.6969 13.2228 28.6969H9.83231V46.1653H4.65813V24.702H13.2228C14.9426 24.702 16.4216 25.0165 17.6599 25.6455 18.908 26.2744 19.8662 27.1392 20.5345 28.2399 21.2027 29.3308 21.5369 30.5789 21.5369 31.9842 21.5369 33.3699 21.2027 34.5787 20.5345 35.6105 19.8662 36.6424 18.908 37.4483 17.6599 38.0281 16.4216 38.5981 14.9426 38.8831 13.2228 38.8831zM31.2956 46.1653H26.5341L26.5636 42.1851H31.2956C32.2783 42.1851 33.1087 41.9493 33.7868 41.4776 34.4748 41.0058 34.9956 40.3032 35.3494 39.3696 35.713 38.4261 35.8948 37.2665 35.8948 35.8906V34.9619C35.8948 33.93 35.7916 33.0259 35.5853 32.2495 35.3887 31.4633 35.0939 30.8098 34.7008 30.289 34.3077 29.7583 33.8163 29.3603 33.2267 29.0949 32.6468 28.8296 31.9786 28.6969 31.2219 28.6969H26.4457V24.702H31.2219C32.6763 24.702 34.008 24.9526 35.2167 25.4538 36.4353 25.9452 37.4869 26.6528 38.3714 27.5766 39.2657 28.4905 39.9536 29.5765 40.4351 30.8344 40.9265 32.0825 41.1722 33.4682 41.1722 34.9914V35.8906C41.1722 37.4041 40.9265 38.7897 40.4351 40.0477 39.9536 41.3056 39.2706 42.3915 38.3861 43.3055 37.5016 44.2194 36.455 44.927 35.2462 45.4282 34.0473 45.9196 32.7304 46.1653 31.2956 46.1653zM29.4971 24.702V46.1653H24.323V24.702H29.4971zM49.044 24.702V46.1653H43.8699V24.702H49.044zM57.3876 33.6352V37.6154H47.5699V33.6352H57.3876zM58.2278 24.702V28.6969H47.5699V24.702H58.2278zM6.64501 17.3193L8.68087 13.742H10.0472V19.4097H8.68087V15.8362L6.64501 19.4097H5.27869V13.742H6.64501V17.3193zM14.7028 15.9919V17.0429H11.795V15.9919H14.7028zM12.2504 13.742V19.4097H10.8841V13.742H12.2504zM15.6215 13.742V19.4097H14.259V13.742H15.6215zM19.7126 17.4906H21.0751C21.0569 17.885 20.9505 18.2328 20.7559 18.5338 20.5612 18.8349 20.2913 19.0697 19.9462 19.2384 19.6036 19.4045 19.1988 19.4875 18.7317 19.4875 18.3528 19.4875 18.0141 19.4239 17.7157 19.2968 17.4199 19.1696 17.1681 18.9867 16.9605 18.7479 16.7555 18.5092 16.5985 18.2198 16.4895 17.8799 16.3831 17.5399 16.3299 17.1571 16.3299 16.7315V16.424C16.3299 15.9984 16.3857 15.6156 16.4973 15.2757 16.6115 14.9331 16.7724 14.6425 16.98 14.4037 17.1902 14.1624 17.4419 13.9781 17.7352 13.851 18.0284 13.7238 18.3541 13.6602 18.7122 13.6602 19.2053 13.6602 19.6218 13.7485 19.9618 13.9249 20.3017 14.1014 20.5651 14.344 20.752 14.6528 20.9388 14.9591 21.0491 15.3081 21.0829 15.7H19.7204C19.7152 15.4872 19.6789 15.3094 19.6114 15.1667 19.544 15.0214 19.4376 14.9124 19.2922 14.8397 19.1469 14.767 18.9536 14.7307 18.7122 14.7307 18.5435 14.7307 18.3969 14.7618 18.2724 14.8241 18.1478 14.8864 18.044 14.985 17.9609 15.12 17.8779 15.2549 17.8156 15.4301 17.7741 15.6455 17.7352 15.8583 17.7157 16.1152 17.7157 16.4162V16.7315C17.7157 17.0326 17.7339 17.2895 17.7702 17.5023 17.8065 17.7151 17.8649 17.8889 17.9454 18.0239 18.0258 18.1588 18.1296 18.2587 18.2568 18.3236 18.3865 18.3859 18.5448 18.417 18.7317 18.417 18.9393 18.417 19.1145 18.3846 19.2572 18.3197 19.3999 18.2523 19.5102 18.151 19.5881 18.0161 19.6659 17.8786 19.7075 17.7034 19.7126 17.4906zM24.3488 13.742V19.4097H22.9825V13.742H24.3488zM26.0538 13.742V14.7969H21.3164V13.742H26.0538zM28.8954 17.4867H27.4863V16.4318H28.8954C29.0874 16.4318 29.2432 16.3994 29.3625 16.3345 29.4819 16.2696 29.5688 16.1801 29.6233 16.0659 29.6804 15.9491 29.709 15.818 29.709 15.6727 29.709 15.517 29.6804 15.373 29.6233 15.2406 29.5688 15.1083 29.4819 15.0019 29.3625 14.9214 29.2432 14.8384 29.0874 14.7969 28.8954 14.7969H28.0001V19.4097H26.6338V13.742H28.8954C29.3496 13.742 29.7401 13.825 30.0671 13.9911 30.3967 14.1572 30.6497 14.3856 30.8262 14.6762 31.0026 14.9643 31.0909 15.2938 31.0909 15.6649 31.0909 16.0308 31.0026 16.35 30.8262 16.6225 30.6497 16.895 30.3967 17.1078 30.0671 17.2609 29.7401 17.4114 29.3496 17.4867 28.8954 17.4867zM33.6211 17.2726L34.9602 13.742H36.4043L34.493 18.238C34.4204 18.4041 34.336 18.5624 34.24 18.7129 34.1466 18.8634 34.035 18.997 33.9053 19.1138 33.7781 19.2306 33.6276 19.3227 33.4537 19.3902 33.2798 19.4577 33.0761 19.4914 32.8426 19.4914 32.7855 19.4914 32.7154 19.4901 32.6324 19.4875 32.5519 19.4875 32.4818 19.4862 32.4222 19.4836L32.3988 18.4248C32.4325 18.4326 32.4792 18.4378 32.5389 18.4404 32.5986 18.4404 32.6414 18.4404 32.6674 18.4404 32.8231 18.4404 32.9464 18.4222 33.0372 18.3859 33.128 18.347 33.1994 18.2899 33.2513 18.2146 33.3058 18.1368 33.3525 18.0382 33.3914 17.9188L33.6211 17.2726zM32.862 13.742L34.022 16.2021 34.4658 17.7748H33.4848L31.4101 13.742H32.862zM38.2261 13.742V19.4097H36.8637V13.742H38.2261zM41.4959 13.742L39.4601 17.1675H37.9886L37.8252 15.9335H38.7555L39.8454 13.742H41.4959zM40.079 19.4097L38.7516 16.93 39.7442 16.0153 41.6906 19.4097H40.079zM47.5685 18.3703L47.4906 20.776H46.2021V19.4097H45.7817V18.3703H47.5685zM41.9358 19.4097V13.742H43.2982V18.3587H45.3341V13.742H46.7043V19.4097H41.9358zM49.472 17.3193L51.5078 13.742H52.8741V19.4097H51.5078V15.8362L49.472 19.4097H48.1056V13.742H49.472V17.3193zM56.6617 17.4205H55.1475L54.7426 17.2531C54.2807 17.1078 53.9291 16.8924 53.6877 16.607 53.4464 16.3189 53.3257 15.9517 53.3257 15.5053 53.3257 15.1161 53.4126 14.7917 53.5865 14.5322 53.7604 14.2701 54.0069 14.0728 54.3261 13.9405 54.6453 13.8081 55.0242 13.742 55.4628 13.742H57.5181V19.4097H56.1479V14.7969H55.4628C55.1903 14.7969 54.993 14.8682 54.8711 15.011 54.7491 15.1511 54.6881 15.3561 54.6881 15.626 54.6881 15.8336 54.7167 15.9971 54.7738 16.1165 54.8334 16.2359 54.9204 16.3215 55.0346 16.3734 55.1488 16.4227 55.2915 16.4474 55.4628 16.4474H56.6539L56.6617 17.4205zM55.6107 16.9106L54.4079 19.4097H52.9209L54.1081 16.9106H55.6107z" fill="#FF6100"/><rect x=".304" y=".304" width="61.392" height="61.392" rx="11.853" stroke="#FF6100" stroke-width=".608"/></symbol><symbol viewBox="0 0 67 65" fill="none" id="svg-tel"><rect width="66.806" height="65" rx="32.186" fill="#fff"/><path d="M40.7099 53.8188C39.4723 53.7954 38.4551 53.6487 37.4475 53.4083C35.5146 52.9466 33.7224 52.136 31.9693 51.2255C30.6622 50.5468 29.4063 49.7822 28.1852 48.9577C26.8382 48.0481 25.5607 47.0492 24.3439 45.9747C23.1713 44.9393 22.07 43.8319 21.0302 42.6619C20.0434 41.551 19.1113 40.3976 18.2486 39.1886C17.4007 37.9996 16.5952 36.7819 15.9217 35.4853C15.4392 34.5557 14.9749 33.6149 14.5496 32.6576C14.0453 31.5224 13.6331 30.3499 13.3432 29.14C13.1167 28.1931 12.9856 27.2315 13.0013 26.2543C13.0143 25.4028 13.1401 24.5723 13.5315 23.8024C13.831 23.214 14.2675 22.7349 14.7388 22.2801C15.3941 21.6466 16.0268 20.9896 16.682 20.356C17.1064 19.9463 17.5178 19.5098 17.9986 19.1765C18.8804 18.5672 19.8204 18.5664 20.7638 19.0871C21.347 19.4091 21.7662 19.9142 22.2279 20.3716C23.5315 21.6639 24.8325 22.9597 26.1213 24.2659C26.7636 24.9177 27.1715 25.6806 27.0656 26.6361C26.9979 27.2454 26.7289 27.7766 26.3123 28.207C25.3341 29.2173 24.3282 30.1989 23.3354 31.1944C23.0715 31.4582 22.8172 31.7316 22.5534 31.9963C22.3685 32.1812 22.3338 32.3877 22.4267 32.6264C22.7339 33.4092 23.134 34.1435 23.5862 34.85C24.4142 36.1457 25.3966 37.3209 26.4277 38.4552C27.4188 39.5462 28.4768 40.5703 29.6216 41.4998C30.5589 42.261 31.5284 42.9796 32.5794 43.5776C33.1036 43.8753 33.653 44.1287 34.1954 44.3925C34.4063 44.495 34.6033 44.4533 34.7743 44.2832C35.9581 43.1028 37.1428 41.9234 38.3275 40.7439C38.7432 40.3299 39.2032 39.9888 39.7786 39.8256C40.5927 39.5948 41.3504 39.7441 42.0005 40.2535C42.5299 40.6675 43.0046 41.1561 43.4837 41.63C44.7222 42.8564 45.9572 44.087 47.181 45.329C47.8128 45.9704 48.1851 46.7281 48.0775 47.6602C48.002 48.3155 47.7 48.8683 47.2487 49.3309C46.6134 49.9827 45.952 50.6085 45.3098 51.2542C44.9062 51.6604 44.5339 52.0978 44.1199 52.4918C43.4438 53.1349 42.634 53.5385 41.7132 53.6982C41.3166 53.7676 40.9121 53.7954 40.7099 53.8188ZM32.9786 14.0056C32.4926 14.042 32.0552 14.2 31.7323 14.5818C31.307 15.0852 31.1447 15.6754 31.1986 16.3289C31.2558 17.0198 31.8339 17.7514 32.5021 17.9102C32.8918 18.0031 33.2997 18.0213 33.699 18.0743C34.5834 18.1914 35.4756 18.2661 36.3496 18.4353C38.0784 18.7703 39.7066 19.39 41.2228 20.2961C42.4639 21.0382 43.5714 21.9416 44.5538 23.0022C45.4799 24.0029 46.2593 25.1086 46.9475 26.2838C47.6878 27.5492 48.206 28.9022 48.5401 30.323C48.7987 31.4226 48.9281 32.5439 48.9576 33.6739C48.9706 34.153 49.0539 34.6052 49.3377 35.0079C49.9895 35.934 51.4754 35.9609 52.2677 35.3551C52.8423 34.9159 53.0376 34.2954 52.9942 33.6097C52.9378 32.7141 52.8492 31.8192 52.7373 30.9296C52.5759 29.6443 52.2226 28.4032 51.7774 27.1881C51.3278 25.9618 50.7515 24.7953 50.0694 23.6827C49.4436 22.6629 48.738 21.6995 47.9612 20.7899C47.5542 20.3135 47.1593 19.8144 46.6889 19.4065C45.9512 18.7677 45.1657 18.1819 44.3803 17.6013C43.2355 16.7559 41.9866 16.0894 40.6787 15.5339C39.336 14.9646 37.9439 14.5584 36.5084 14.3067C35.4912 14.1288 34.4662 14.022 33.5002 14.0029C33.2807 14.0038 33.1288 13.9943 32.9786 14.0056ZM45.4781 33.5542C45.4712 32.7357 45.3436 31.9312 45.164 31.1371C44.9079 30.0019 44.4818 28.9291 43.902 27.9189C43.2008 26.6978 42.3511 25.5973 41.2897 24.6634C40.0147 23.5421 38.5801 22.6985 36.971 22.1569C35.762 21.7498 34.5157 21.552 33.2425 21.5077C32.7651 21.4912 32.2938 21.5346 31.8773 21.7802C31.2315 22.1612 30.9417 22.7479 30.9234 23.4961C30.8948 24.7042 31.7453 25.5 32.8363 25.5348C33.5792 25.5582 34.3135 25.6268 35.039 25.8021C35.8722 26.0026 36.6577 26.3176 37.3841 26.7663C38.3917 27.3886 39.2379 28.1871 39.9236 29.1539C40.7247 30.2839 41.1838 31.5476 41.373 32.9119C41.4459 33.437 41.4624 33.9699 41.5457 34.4924C41.6212 34.9637 41.8581 35.3655 42.24 35.6649C42.7165 36.039 43.2659 36.1353 43.8465 36.0242C44.6476 35.8715 45.2186 35.4297 45.4122 34.6122C45.4929 34.2711 45.4886 33.91 45.5224 33.5585C45.5077 33.5568 45.4929 33.555 45.4781 33.5542Z" fill="#FF6100"/></symbol><symbol viewBox="0 0 62 62" fill="none" id="svg-video-icon"><path d="M15.3134 49.8747H13.0874L13.0755 48.5094H14.8801C15.2046 48.5094 15.4638 48.4738 15.6577 48.4026 15.8516 48.3274 15.9921 48.2186 16.0791 48.0761 16.1701 47.9336 16.2156 47.7556 16.2156 47.5419 16.2156 47.2965 16.1701 47.0987 16.0791 46.9483 15.9881 46.7979 15.8437 46.6891 15.6458 46.6218 15.4519 46.5506 15.2006 46.5149 14.8919 46.5149H13.8709V53.5491H11.7874V44.9063H14.8919C15.4262 44.9063 15.903 44.9558 16.3225 45.0547 16.742 45.1497 17.0981 45.2961 17.391 45.494 17.6878 45.6918 17.9133 45.9411 18.0677 46.2419 18.222 46.5387 18.2992 46.8889 18.2992 47.2926 18.2992 47.6448 18.224 47.9752 18.0736 48.2839 17.9232 48.5925 17.6719 48.8438 17.3197 49.0377 16.9715 49.2277 16.4946 49.3266 15.8892 49.3345L15.3134 49.8747zM15.2303 53.5491H12.5828L13.2952 51.9464H15.2303C15.5152 51.9464 15.7427 51.9028 15.9129 51.8158 16.087 51.7248 16.2117 51.606 16.2869 51.4596 16.366 51.3092 16.4056 51.143 16.4056 50.961 16.4056 50.7394 16.368 50.5475 16.2928 50.3852 16.2216 50.223 16.1068 50.0983 15.9485 50.0112 15.7902 49.9202 15.5785 49.8747 15.3134 49.8747H13.5623L13.5741 48.5094H15.6695L16.1563 49.0555C16.7341 49.0318 17.1911 49.1129 17.5275 49.2989 17.8678 49.4849 18.1112 49.7303 18.2576 50.035 18.404 50.3397 18.4773 50.6583 18.4773 50.9907 18.4773 51.5566 18.3546 52.0295 18.1092 52.4094 17.8678 52.7893 17.5057 53.0742 17.0229 53.2641 16.5401 53.4541 15.9426 53.5491 15.2303 53.5491zM21.5996 50.3615L24.7041 44.9063H26.7876V53.5491H24.7041V48.0999L21.5996 53.5491H19.516V44.9063H21.5996V50.3615zM35.0802 51.9464V53.5491H29.0077V51.9464H35.0802zM29.6962 51.9464V55.6682H27.767L27.6246 51.9464H29.6962zM36.4989 51.9464L36.2792 55.6741H34.4094V51.9464H36.4989zM34.172 44.9063V46.5149H29.8328V44.9063H34.172zM35.5728 44.9063V53.5491H33.5012V44.9063H35.5728zM29.6962 44.9063H31.7738L31.5186 48.4501C31.475 49.0555 31.4058 49.5819 31.3108 50.029 31.2158 50.4762 31.1031 50.8621 30.9725 51.1866 30.8419 51.5111 30.6994 51.79 30.5451 52.0235 30.3907 52.257 30.2285 52.4608 30.0583 52.6349 29.8921 52.8091 29.7259 52.9673 29.5597 53.1098 29.3935 53.2523 29.2332 53.3987 29.0789 53.5491H27.8145V51.9464H28.23C28.3527 51.8593 28.4754 51.7426 28.5981 51.5961 28.7247 51.4458 28.8434 51.242 28.9542 50.9847 29.065 50.7275 29.162 50.3931 29.2451 49.9816 29.3282 49.57 29.3915 49.0595 29.435 48.4501L29.6962 44.9063zM43.1649 51.9464V53.5491H38.5586V51.9464H43.1649zM39.3006 44.9063V53.5491H37.2171V44.9063H39.3006zM42.5713 48.3373V49.8866H38.5586V48.3373H42.5713zM43.1828 44.9063V46.5149H38.5586V44.9063H43.1828zM51.3328 49.0555V49.4058C51.3328 50.0666 51.2398 50.6602 51.0538 51.1866 50.8718 51.7089 50.6126 52.1561 50.2762 52.5281 49.9399 52.8961 49.5422 53.1791 49.0831 53.3769 48.6241 53.5708 48.1175 53.6678 47.5635 53.6678 47.0055 53.6678 46.495 53.5708 46.032 53.3769 45.573 53.1791 45.1733 52.8961 44.833 52.5281 44.4966 52.1561 44.2354 51.7089 44.0494 51.1866 43.8674 50.6602 43.7763 50.0666 43.7763 49.4058V49.0555C43.7763 48.3947 43.8674 47.8011 44.0494 47.2748 44.2354 46.7484 44.4946 46.3013 44.827 45.9332 45.1634 45.5612 45.5611 45.2783 46.0201 45.0844 46.4832 44.8865 46.9936 44.7876 47.5516 44.7876 48.1056 44.7876 48.6122 44.8865 49.0712 45.0844 49.5342 45.2783 49.9339 45.5612 50.2703 45.9332 50.6067 46.3013 50.8679 46.7484 51.0538 47.2748 51.2398 47.8011 51.3328 48.3947 51.3328 49.0555zM49.2196 49.4058V49.0437C49.2196 48.6163 49.182 48.2403 49.1068 47.9158 49.0356 47.5874 48.9288 47.3123 48.7863 47.0907 48.6438 46.8691 48.4677 46.7029 48.258 46.5921 48.0522 46.4774 47.8168 46.42 47.5516 46.42 47.2746 46.42 47.0332 46.4774 46.8274 46.5921 46.6217 46.7029 46.4495 46.8691 46.311 47.0907 46.1725 47.3123 46.0676 47.5874 45.9964 47.9158 45.9291 48.2403 45.8955 48.6163 45.8955 49.0437V49.4058C45.8955 49.8292 45.9291 50.2051 45.9964 50.5336 46.0676 50.8581 46.1725 51.1331 46.311 51.3587 46.4535 51.5843 46.6276 51.7544 46.8334 51.8692 47.0431 51.984 47.2865 52.0413 47.5635 52.0413 47.8286 52.0413 48.0641 51.984 48.2699 51.8692 48.4757 51.7544 48.6478 51.5843 48.7863 51.3587 48.9288 51.1331 49.0356 50.8581 49.1068 50.5336 49.182 50.2051 49.2196 49.8292 49.2196 49.4058zM25.926 18.7668C30.0943 18.7668 34.2625 18.7672 38.4308 18.7664 38.9424 18.7664 39.4186 18.8802 39.8353 19.191 40.1842 19.4513 40.3615 19.7944 40.3603 20.2367 40.356 21.7137 40.3587 23.1907 40.3587 24.6677 40.3587 28.9671 40.3512 33.2669 40.3654 37.5663 40.3678 38.3445 39.9546 38.7487 39.3985 38.9598 39.1106 39.0693 38.7876 39.137 38.4804 39.1374 30.1242 39.1468 21.768 39.1453 13.4114 39.1441 12.884 39.1441 12.3992 39.0027 11.9884 38.66 11.7016 38.421 11.5488 38.1177 11.5488 37.7341 11.5512 31.8785 11.55 26.0233 11.5512 20.1682 11.5512 19.5388 11.947 19.2001 12.4638 18.9606 12.7911 18.8089 13.1408 18.7656 13.4996 18.7656 17.6419 18.7672 21.7837 18.7668 25.926 18.7668zM25.9488 22.7767C22.586 22.7559 19.8125 25.4889 19.7628 28.8528 19.7116 32.3181 22.4773 35.0873 25.8433 35.1397 29.3845 35.1944 32.1412 32.3263 32.1356 28.969 32.1301 25.5334 29.3814 22.7767 25.9488 22.7767zM51.149 28.9325C51.149 32.4832 51.1486 36.0342 51.1498 39.5849 51.1498 40.0335 50.9836 40.4101 50.6409 40.6893 50.2998 40.967 49.9103 41.0391 49.503 40.8283 48.7693 40.4491 48.1324 39.9303 47.501 39.4073 45.64 37.8657 43.8629 36.2343 42.2607 34.421 41.5545 33.6218 41.5624 33.6151 41.5624 32.5576 41.5624 29.9652 41.5655 27.3724 41.5576 24.78 41.5568 24.5145 41.6183 24.2853 41.7845 24.0892 42.2752 23.509 42.7491 22.9119 43.2725 22.3625 44.6896 20.8745 46.1902 19.4735 47.8094 18.206 48.3136 17.8114 48.8575 17.4648 49.3983 17.1205 50.0694 16.6936 51.1092 17.1206 51.147 18.1233 51.1502 18.2021 51.149 18.2809 51.149 18.3596 51.149 21.8831 51.149 25.4078 51.149 28.9325zM25.9512 12.0764C25.963 8.70292 28.6594 6.17708 31.748 6.08137 35.1246 5.97661 37.8679 8.62612 37.9494 11.905 38.0349 15.3423 35.3342 17.9532 32.1856 18.0674 28.7417 18.1919 25.9559 15.4494 25.9512 12.0764zM23.5447 13.2872C23.5538 15.9308 21.3497 18.1356 18.6266 18.0698 16.044 18.0072 13.925 15.8587 13.9514 13.2202 13.9758 10.766 15.9325 8.47375 18.753 8.4773 21.5589 8.48084 23.5613 10.7479 23.5447 13.2872z" fill="#FF6100"/><path d="M24.322 28.9541C24.322 27.9765 24.3184 26.9986 24.3271 26.021C24.3279 25.917 24.3763 25.7863 24.4496 25.7209C24.4878 25.687 24.643 25.7485 24.7214 25.8016C26.1653 26.7792 27.606 27.7619 29.0468 28.7442C29.2772 28.9013 29.2756 29.0144 29.0452 29.1711C27.6253 30.1377 26.2058 31.105 24.7864 32.0715C24.732 32.1086 24.6796 32.1483 24.6221 32.1795C24.4752 32.2594 24.3476 32.1936 24.3255 32.0247C24.3169 31.9601 24.3216 31.8935 24.3216 31.8281C24.3216 30.8703 24.322 29.9124 24.322 28.9541Z" fill="#FF6100"/><rect x=".304" y=".304" width="61.392" height="61.392" rx="11.853" stroke="#FF6100" stroke-width=".608"/></symbol></svg>